<?xml version="1.0" standalone="no"?><svg xmlns="http://www.w3.org/2000/svg" viewBox="0 0 1440 160"><path fill="#FFC700" fill-opacity="1" d="M0,32L0,224L36.9,224L36.9,192L73.8,192L73.8,64L110.8,64L110.8,64L147.7,64L147.7,256L184.6,256L184.6,288L221.5,288L221.5,32L258.5,32L258.5,224L295.4,224L295.4,320L332.3,320L332.3,256L369.2,256L369.2,224L406.2,224L406.2,160L443.1,160L443.1,96L480,96L480,128L516.9,128L516.9,256L553.8,256L553.8,160L590.8,160L590.8,224L627.7,224L627.7,96L664.6,96L664.6,128L701.5,128L701.5,128L738.5,128L738.5,288L775.4,288L775.4,192L812.3,192L812.3,224L849.2,224L849.2,128L886.2,128L886.2,224L923.1,224L923.1,160L960,160L960,160L996.9,160L996.9,128L1033.8,128L1033.8,96L1070.8,96L1070.8,160L1107.7,160L1107.7,96L1144.6,96L1144.6,64L1181.5,64L1181.5,0L1218.5,0L1218.5,64L1255.4,64L1255.4,192L1292.3,192L1292.3,160L1329.2,160L1329.2,288L1366.2,288L1366.2,32L1403.1,32L1403.1,128L1440,128L1440,0L1403.1,0L1403.1,0L1366.2,0L1366.2,0L1329.2,0L1329.2,0L1292.3,0L1292.3,0L1255.4,0L1255.4,0L1218.5,0L1218.5,0L1181.5,0L1181.5,0L1144.6,0L1144.6,0L1107.7,0L1107.7,0L1070.8,0L1070.8,0L1033.8,0L1033.8,0L996.9,0L996.9,0L960,0L960,0L923.1,0L923.1,0L886.2,0L886.2,0L849.2,0L849.2,0L812.3,0L812.3,0L775.4,0L775.4,0L738.5,0L738.5,0L701.5,0L701.5,0L664.6,0L664.6,0L627.7,0L627.7,0L590.8,0L590.8,0L553.8,0L553.8,0L516.9,0L516.9,0L480,0L480,0L443.1,0L443.1,0L406.2,0L406.2,0L369.2,0L369.2,0L332.3,0L332.3,0L295.4,0L295.4,0L258.5,0L258.5,0L221.5,0L221.5,0L184.6,0L184.6,0L147.7,0L147.7,0L110.8,0L110.8,0L73.8,0L73.8,0L36.9,0L36.9,0L0,0L0,0Z"></path></svg>